<svg width="816.000000" height="192.000000" viewBox="0 0 816 192" fill="none" xmlns="http://www.w3.org/2000/svg" xmlns:xlink="http://www.w3.org/1999/xlink">
	<desc>
			Created with Pixso.
	</desc>
	<defs>
		<filter id="filter_2_32_dd" x="8.630859" y="35.500000" width="802.730469" height="118.925781" filterUnits="userSpaceOnUse" color-interpolation-filters="sRGB">
			<feFlood flood-opacity="0" result="BackgroundImageFix"/>
			<feColorMatrix in="SourceAlpha" type="matrix" values="0 0 0 0 0 0 0 0 0 0 0 0 0 0 0 0 0 0 127 0" result="hardAlpha"/>
			<feOffset dx="0" dy="4"/>
			<feGaussianBlur stdDeviation="1.33333"/>
			<feComposite in2="hardAlpha" operator="out" k2="-1" k3="1"/>
			<feColorMatrix type="matrix" values="0 0 0 0 0 0 0 0 0 0 0 0 0 0 0 0 0 0 0.25 0"/>
			<feBlend mode="normal" in2="BackgroundImageFix" result="effect_dropShadow_1"/>
			<feBlend mode="normal" in="SourceGraphic" in2="effect_dropShadow_1" result="shape"/>
		</filter>
		<filter id="filter_2_36_dd" x="152.000000" y="174.000000" width="512.000000" height="18.000000" filterUnits="userSpaceOnUse" color-interpolation-filters="sRGB">
			<feFlood flood-opacity="0" result="BackgroundImageFix"/>
			<feColorMatrix in="SourceAlpha" type="matrix" values="0 0 0 0 0 0 0 0 0 0 0 0 0 0 0 0 0 0 127 0" result="hardAlpha"/>
			<feOffset dx="0" dy="4"/>
			<feGaussianBlur stdDeviation="1.33333"/>
			<feComposite in2="hardAlpha" operator="out" k2="-1" k3="1"/>
			<feColorMatrix type="matrix" values="0 0 0 0 0 0 0 0 0 0 0 0 0 0 0 0 0 0 0.25 0"/>
			<feBlend mode="normal" in2="BackgroundImageFix" result="effect_dropShadow_1"/>
			<feBlend mode="normal" in="SourceGraphic" in2="effect_dropShadow_1" result="shape"/>
		</filter>
	</defs>
	<g filter="url(#filter_2_32_dd)">
		<path id="DonerKebab" d="M639.83 136.23Q647.67 126.03 647.67 107.07L647.67 105.86Q647.67 87.11 639.83 76.77Q636.93 72.95 633.13 70.54Q626.66 66.43 617.59 66.43Q611.57 66.43 606.81 68.88Q603.17 70.75 600.26 74.06L600.26 35.5L576.24 35.5L576.24 145L597.77 145L598.77 137.08Q602.39 141.78 607.17 144.12Q611.88 146.42 617.73 146.42Q626.72 146.42 633.16 142.37Q636.93 139.99 639.83 136.23ZM799.52 136.23Q807.36 126.03 807.36 107.07L807.36 105.86Q807.36 87.11 799.52 76.77Q796.62 72.95 792.82 70.54Q786.35 66.43 777.27 66.43Q771.26 66.43 766.5 68.88Q762.86 70.75 759.95 74.06L759.95 35.5L735.93 35.5L735.93 145L757.45 145L758.45 137.08Q762.08 141.78 766.85 144.12Q771.57 146.42 777.42 146.42Q786.4 146.42 792.84 142.37Q796.62 139.99 799.52 136.23ZM12.63 41.2L12.63 145L46.77 145Q56.58 144.94 65.05 141.55Q68.22 140.28 71.19 138.54Q76.26 135.58 80.28 131.57Q84.93 126.92 88.16 120.86Q88.54 120.15 88.9 119.42Q94.18 108.66 94.18 95.31L94.18 90.53Q94.12 78.43 89.58 68.35Q88.82 66.67 87.94 65.04Q84.37 58.45 79.18 53.59Q75.41 50.06 70.8 47.44Q68.82 46.31 66.76 45.39Q57.35 41.2 46.06 41.2L12.63 41.2ZM431.16 117.62L441.43 106.36L463.53 145L493.19 145L458.11 87.11L493.19 41.2L462.25 41.2L439.86 73.78L431.16 86.97L431.16 41.2L406.14 41.2L406.14 145L431.16 145L431.16 117.62ZM37.65 125.75L37.65 60.52L46.06 60.52Q53.55 60.52 58.61 64.02Q61.02 65.69 62.88 68.15Q68.66 75.77 68.66 90.82L68.66 95.31Q68.66 110.42 62.88 118.08Q60.82 120.83 58.12 122.59Q53.26 125.75 46.35 125.75L37.65 125.75ZM107.37 85.15Q102.88 94.17 102.88 105.72L102.95 109.78Q103.6 123.84 110.63 133.04Q112.04 134.89 113.71 136.55Q116.06 138.86 118.75 140.64Q127.56 146.42 140.16 146.42Q152.95 146.42 161.77 140.51Q164.76 138.51 167.29 135.83Q168.67 134.38 169.86 132.78Q177.3 122.76 177.3 107.21L177.3 106.36Q177.3 89.82 169.3 79.48Q168.36 78.28 167.32 77.16Q164.85 74.51 161.93 72.51Q153.06 66.43 140.02 66.43Q128.68 66.43 120.27 71.28Q117 73.17 114.31 75.69Q110.11 79.64 107.37 85.15ZM210.74 76.91L209.95 67.86L187.43 67.86L187.43 145L211.45 145L211.45 90.53Q212.88 88.2 214.95 86.85Q217.83 84.97 221.93 84.97Q228.13 84.97 230.49 87.71Q232.84 90.46 232.84 96.3L232.84 145L256.93 145L256.93 95.31Q256.72 80.83 250.77 73.63Q249.73 72.38 248.5 71.34Q242.71 66.43 232.77 66.43Q224.61 66.43 218.5 69.97Q214.09 72.52 210.74 76.91ZM284.45 140.29Q294.04 146.42 307.55 146.42Q315.01 146.42 321.7 144.15Q323.51 143.53 325.26 142.75Q333.5 139.08 337.99 132.88L327.01 119.9Q324.71 122.76 321.78 124.59Q316.51 127.89 309.19 127.89Q303.15 127.89 299.07 125.06Q298.48 124.65 297.93 124.18Q297.16 123.52 296.49 122.78Q293.35 119.33 292.29 113.98L340.06 113.98L340.06 104.65Q340.06 87.6 331.66 77.66Q331.17 77.08 330.65 76.52Q328.28 73.99 325.48 72.09Q317.15 66.43 304.98 66.43Q293.43 66.43 285.02 71.39Q281.56 73.43 278.79 76.15Q274.81 80.06 272.23 85.4Q267.84 94.45 267.84 106.29L267.84 108.28Q267.84 119.67 272.79 128.19Q275.21 132.36 278.82 135.83Q281.44 138.36 284.45 140.29ZM388.46 89.03L396.38 89.6L396.8 67.29Q393.95 66.43 390.1 66.43Q386.4 66.43 383.25 67.76Q377.19 70.31 373.21 77.77L372.42 67.86L349.89 67.86L349.89 145L373.92 145L373.92 96.16Q374.6 94.65 375.64 93.46Q379.53 89.03 388.46 89.03ZM510.79 140.29Q520.38 146.42 533.89 146.42Q541.35 146.42 548.04 144.15Q549.85 143.53 551.61 142.75Q559.84 139.08 564.33 132.88L553.35 119.9Q551.06 122.76 548.12 124.59Q542.86 127.89 535.53 127.89Q529.49 127.89 525.41 125.06Q524.82 124.65 524.27 124.18Q523.5 123.52 522.83 122.78Q519.69 119.33 518.64 113.98L566.4 113.98L566.4 104.65Q566.4 87.6 558 77.66Q557.51 77.08 556.99 76.52Q554.62 73.99 551.83 72.09Q543.49 66.43 531.33 66.43Q519.78 66.43 511.36 71.39Q507.91 73.43 505.13 76.15Q501.15 80.06 498.57 85.4Q494.18 94.45 494.18 106.29L494.18 108.28Q494.18 119.67 499.13 128.19Q501.55 132.36 505.16 135.83Q507.78 138.36 510.79 140.29ZM699.43 138.08Q700.42 142.64 701.71 145L725.73 145L725.73 143.78Q722.59 138.15 722.45 127.53L722.45 93.38Q722.31 85.03 718.48 79.05Q716.55 76.04 713.68 73.63Q705.13 66.43 690.37 66.43Q675.61 66.43 666.1 73.42Q660.72 77.37 658.38 82.66Q656.58 86.73 656.58 91.6L680.6 91.6Q680.6 87.46 682.67 85.36Q684.81 83.19 689.16 83.19Q693.1 83.19 695.35 85.14Q698.36 87.74 698.36 93.81L698.36 97.87L690.94 97.87Q673.26 97.87 663.99 104.29Q660.5 106.71 658.32 110Q654.73 115.44 654.73 123.25Q654.73 128.1 656.52 132.14Q658.43 136.43 662.35 139.83Q664.95 142.07 667.93 143.55Q673.7 146.42 680.89 146.42Q688.57 146.42 694.05 142.95Q697.07 141.04 699.43 138.08ZM130.25 122.9Q126.9 117.91 126.9 107.21L126.97 102.86Q127.67 90.36 133.77 86.59Q136.39 84.97 140.02 84.97Q143.87 84.97 146.6 86.71Q153.28 90.99 153.28 105.72L153.28 108.14Q153.08 122.08 146.63 126.18Q143.94 127.89 140.16 127.89Q136.24 127.89 133.47 126.1Q131.6 124.9 130.25 122.9ZM298.71 86.55Q301.29 84.97 304.84 84.97Q309.88 84.97 312.86 87.45Q313.25 87.77 313.61 88.14Q313.89 88.44 314.15 88.75Q316.66 91.85 316.53 97.09L316.53 98.94L292.29 98.94Q293.62 89.67 298.71 86.55ZM525.05 86.55Q527.64 84.97 531.18 84.97Q536.22 84.97 539.2 87.45Q539.59 87.77 539.95 88.14Q540.24 88.44 540.49 88.75Q543 91.85 542.87 97.09L542.87 98.94L518.64 98.94Q519.96 89.67 525.05 86.55ZM620.62 89.71Q623.57 94.45 623.57 105.57Q623.57 115.62 622.43 119.69Q621.28 123.89 618.52 125.95Q615.84 127.96 611.67 127.96Q606.06 127.96 602.83 125.18Q601.27 123.83 600.26 121.83L600.26 91.17Q601.39 88.94 603.17 87.51Q606.32 84.97 611.53 84.97Q615.19 84.97 617.72 86.66Q619.43 87.8 620.62 89.71ZM780.3 89.71Q783.26 94.45 783.26 105.57Q783.26 115.62 782.12 119.69Q780.96 123.89 778.21 125.95Q775.53 127.96 771.36 127.96Q765.75 127.96 762.52 125.18Q760.95 123.83 759.95 121.83L759.95 91.17Q761.08 88.94 762.85 87.51Q766.01 84.97 771.21 84.97Q774.88 84.97 777.41 86.66Q779.11 87.8 780.3 89.71ZM694.11 127.39Q691.16 129.31 686.66 129.31Q684.13 129.31 682.26 128.2Q681.61 127.81 681.03 127.28Q680.23 126.54 679.71 125.63Q678.82 124.05 678.82 121.97Q678.82 116.94 681.32 114.16Q684.42 110.71 691.37 110.71L698.36 110.71L698.36 123.04Q697.07 125.46 694.11 127.39Z" fill="#FFFFFF" fill-opacity="1.000000" fill-rule="evenodd"/>
	</g>
	<g filter="url(#filter_2_36_dd)">
		<line id="Линия 1" x1="156.000000" y1="179.000000" x2="660.000000" y2="179.000000" stroke="#FFFFFF" stroke-opacity="1.000000" stroke-width="10.000000"/>
	</g>
</svg>
